<svg width="508" height="508" viewBox="0 0 508 508" fill="none" xmlns="http://www.w3.org/2000/svg">
<g filter="url(#filter0_d_92_6)">
<g clip-path="url(#clip0_92_6)">
<rect x="4" width="500" height="500" rx="20" fill="#220E2A"/>
<path d="M260 46.6666H194.229C185.59 46.6638 177.035 48.363 169.053 51.667C161.071 54.971 153.818 59.8152 147.709 65.9229C141.599 72.0305 136.752 79.282 133.446 87.263C130.139 95.2441 128.437 103.798 128.437 112.437C128.434 121.078 130.134 129.635 133.44 137.618C136.745 145.602 141.591 152.856 147.701 158.966C153.811 165.075 161.065 169.922 169.048 173.227C177.032 176.532 185.589 178.232 194.229 178.229H260M260 46.6666V178.229M260 46.6666H325.771C334.41 46.6638 342.964 48.363 350.946 51.667C358.929 54.971 366.182 59.8152 372.291 65.9229C378.401 72.0305 383.247 79.282 386.554 87.263C389.861 95.2441 391.563 103.798 391.563 112.437C391.565 121.078 389.866 129.635 386.56 137.618C383.255 145.602 378.409 152.856 372.299 158.966C366.189 165.075 358.935 169.922 350.951 173.227C342.968 176.532 334.411 178.232 325.771 178.229H260" stroke="white" stroke-width="32" stroke-linecap="round" stroke-linejoin="round"/>
<path d="M325.77 178.229H325.792C362.116 178.229 391.562 207.676 391.562 244V244.021C391.562 280.345 362.116 309.792 325.792 309.792H325.77C289.446 309.792 260 280.345 260 244.021V244C260 207.676 289.446 178.229 325.77 178.229Z" stroke="white" stroke-width="32" stroke-linecap="round" stroke-linejoin="round"/>
<path d="M128.437 244C128.437 235.361 130.139 226.807 133.446 218.826C136.752 210.845 141.599 203.593 147.709 197.485C153.818 191.378 161.071 186.534 169.053 183.23C177.035 179.926 185.59 178.226 194.229 178.229H260V309.771H194.229C185.59 309.773 177.035 308.074 169.053 304.77C161.071 301.466 153.818 296.622 147.709 290.514C141.599 284.407 136.752 277.155 133.446 269.174C130.139 261.193 128.437 252.639 128.437 244Z" stroke="white" stroke-width="32" stroke-linecap="round" stroke-linejoin="round"/>
<path d="M128.437 375.563C128.434 366.922 130.134 358.365 133.44 350.382C136.745 342.398 141.591 335.144 147.701 329.034C153.811 322.924 161.065 318.078 169.048 314.773C177.032 311.468 185.589 309.768 194.229 309.771H260V375.563C260 393.006 253.071 409.735 240.736 422.07C228.402 434.404 211.673 441.333 194.229 441.333C185.59 441.336 177.035 439.637 169.053 436.333C161.071 433.029 153.818 428.185 147.709 422.077C141.599 415.969 136.752 408.718 133.446 400.737C130.139 392.756 128.437 384.202 128.437 375.563Z" stroke="white" stroke-width="32" stroke-linecap="round" stroke-linejoin="round"/>
</g>
</g>
<defs>
<filter id="filter0_d_92_6" x="0" y="0" width="508" height="508" filterUnits="userSpaceOnUse" color-interpolation-filters="sRGB">
<feFlood flood-opacity="0" result="BackgroundImageFix"/>
<feColorMatrix in="SourceAlpha" type="matrix" values="0 0 0 0 0 0 0 0 0 0 0 0 0 0 0 0 0 0 127 0" result="hardAlpha"/>
<feOffset dy="4"/>
<feGaussianBlur stdDeviation="2"/>
<feComposite in2="hardAlpha" operator="out"/>
<feColorMatrix type="matrix" values="0 0 0 0 0.616013 0 0 0 0 0.180065 0 0 0 0 0.682353 0 0 0 0.2 0"/>
<feBlend mode="normal" in2="BackgroundImageFix" result="effect1_dropShadow_92_6"/>
<feBlend mode="normal" in="SourceGraphic" in2="effect1_dropShadow_92_6" result="shape"/>
</filter>
<clipPath id="clip0_92_6">
<rect x="4" width="500" height="500" rx="20" fill="white"/>
</clipPath>
</defs>
</svg>
