<svg width="108" height="108" viewBox="0 0 108 108" fill="none" xmlns="http://www.w3.org/2000/svg">
<g filter="url(#filter0_d_92_5)">
<rect x="4" width="100" height="100" rx="20" fill="#220E2A"/>
<g clip-path="url(#clip0_92_5)">
<path d="M87 50.3375C87 57.8214 84.8694 64.5515 80.6082 70.5279C76.3503 76.5043 70.8463 80.6382 64.0994 82.933C63.3155 83.0837 62.7393 82.9799 62.3775 82.6214C62.199 82.4478 62.0583 82.2391 61.9644 82.0085C61.8704 81.7779 61.8251 81.5304 61.8315 81.2814V71.8445C61.8315 68.9534 61.0744 66.8362 59.5635 65.4962C61.0729 65.3447 62.5681 65.0759 64.0358 64.6922C65.3557 64.3338 66.7224 63.7542 68.1328 62.9502C69.4887 62.1915 70.6881 61.182 71.667 59.9754C72.6117 58.7962 73.3823 57.2318 73.9786 55.2787C74.5749 53.3257 74.873 51.0845 74.873 48.5519C74.873 44.944 73.7239 41.872 71.4292 39.3394C72.5012 36.6259 72.3873 33.5875 71.0774 30.2174C70.2634 29.9494 69.0875 30.1169 67.5465 30.7098C66.1487 31.2349 64.8048 31.8934 63.5332 32.6763L61.875 33.7483C59.1514 32.9718 56.3322 32.5816 53.5 32.5892C50.6677 32.5827 47.8485 32.974 45.125 33.7516C44.5191 33.332 43.9014 32.9299 43.2724 32.5456C42.5019 32.0666 41.2859 31.4937 39.6277 30.8237C37.9728 30.1537 36.7198 29.9527 35.8756 30.2207C34.5993 33.5875 34.4955 36.6259 35.5742 39.3394C33.2761 41.872 32.1236 44.944 32.1236 48.5519C32.1236 51.0845 32.4251 53.319 33.0214 55.2586C33.6177 57.1949 34.3816 58.7594 35.3095 59.952C36.2717 61.1711 37.4647 62.1888 38.8203 62.9469C40.2306 63.7509 41.6008 64.3338 42.9207 64.6889C44.2439 65.0507 45.7347 65.3187 47.3929 65.4962C46.2305 66.5682 45.5169 68.1059 45.2556 70.1025C44.6311 70.4051 43.9718 70.6301 43.2925 70.7725C42.474 70.9331 41.641 71.0084 40.8068 70.9969C39.8454 70.9969 38.8973 70.6753 37.9493 70.0355C37.0046 69.3923 36.1973 68.461 35.5273 67.2416C35.0039 66.3194 34.2818 65.5252 33.4134 64.9167C32.5558 64.3204 31.8355 63.9619 31.2526 63.8447L30.3816 63.7107C29.7719 63.7107 29.3498 63.7777 29.1153 63.9117C28.8808 64.0457 28.8138 64.2132 28.8976 64.4242C28.9961 64.6515 29.1283 64.8627 29.2895 65.0507C29.4569 65.2518 29.6481 65.4318 29.859 65.5867L30.1605 65.8078C30.8037 66.1093 31.4335 66.6754 32.06 67.5096C32.6864 68.3437 33.1454 69.1042 33.4335 69.7876L33.869 70.816C34.2475 71.9483 34.8874 72.8662 35.7919 73.5664C36.6931 74.2699 37.6679 74.7154 38.7131 74.9064C39.7583 75.1007 40.77 75.2079 41.7448 75.2213C42.7163 75.2347 43.5271 75.1844 44.1669 75.0638L45.1685 74.8863C45.1685 76.0186 45.1752 77.3452 45.192 78.8661L45.2121 81.2781C45.2121 81.8141 45.0245 82.263 44.6426 82.6181C44.2674 82.9799 43.6845 83.0837 42.9006 82.933C36.1537 80.6382 30.6496 76.501 26.3918 70.5279C22.1306 64.5515 20 57.8214 20 50.3375C20 44.1065 21.4974 38.3646 24.4923 33.1017C27.3917 27.9399 31.5969 23.6308 36.6863 20.6062C41.7599 17.5521 47.5782 15.9581 53.5 16C59.4229 15.9575 65.2425 17.5515 70.317 20.6062C75.4053 23.6312 79.6092 27.9403 82.5076 33.1017C85.5025 38.3612 87 44.1098 87 50.3375Z" fill="white"/>
</g>
</g>
<defs>
<filter id="filter0_d_92_5" x="0" y="0" width="108" height="108" filterUnits="userSpaceOnUse" color-interpolation-filters="sRGB">
<feFlood flood-opacity="0" result="BackgroundImageFix"/>
<feColorMatrix in="SourceAlpha" type="matrix" values="0 0 0 0 0 0 0 0 0 0 0 0 0 0 0 0 0 0 127 0" result="hardAlpha"/>
<feOffset dy="4"/>
<feGaussianBlur stdDeviation="2"/>
<feComposite in2="hardAlpha" operator="out"/>
<feColorMatrix type="matrix" values="0 0 0 0 0.616013 0 0 0 0 0.180065 0 0 0 0 0.682353 0 0 0 0.2 0"/>
<feBlend mode="normal" in2="BackgroundImageFix" result="effect1_dropShadow_92_5"/>
<feBlend mode="normal" in="SourceGraphic" in2="effect1_dropShadow_92_5" result="shape"/>
</filter>
<clipPath id="clip0_92_5">
<rect width="67" height="67" fill="white" transform="translate(20 16)"/>
</clipPath>
</defs>
</svg>
