<svg width="108" height="108" viewBox="0 0 108 108" fill="none" xmlns="http://www.w3.org/2000/svg">
<g filter="url(#filter0_d_92_4)">
<rect x="4" width="100" height="100" rx="20" fill="#220E2A"/>
<path d="M21.0469 16.5234V81.9531H86.4766V16.5234H21.0469ZM55.656 72.2763C54.6903 74.2387 52.8468 75.5279 50.7106 76.1503C47.4281 76.904 44.2885 76.4743 41.953 75.0725C40.39 74.1136 39.1693 72.6375 38.3407 70.9369L43.3239 67.8852C43.3673 67.9035 43.4982 68.1401 43.673 68.4458C44.3084 69.5105 44.8565 70.2642 45.9337 70.7934C46.9921 71.1546 49.3156 71.3854 50.2128 69.5231C50.7609 68.5756 50.5865 65.5303 50.5865 62.1609C50.586 56.8663 50.6106 51.5938 50.6106 46.3594H56.7396C56.7396 52.1172 56.771 57.5704 56.7396 63.1889C56.7526 66.6332 57.0515 69.7036 55.656 72.2763ZM81.0815 70.5448C78.9511 77.8321 67.0733 78.0687 62.3267 73.2541C61.3238 72.1209 60.6952 71.5289 60.0969 70.2208C62.6193 68.7698 62.6193 68.7698 65.0737 67.3497C66.4069 69.399 67.6396 70.526 69.8574 70.9871C72.8661 71.3546 75.8932 70.3208 75.2143 67.1252C74.5165 64.5153 69.0534 63.8804 65.3354 61.0894C61.5609 58.5544 60.6763 52.3946 63.7782 48.875C64.812 47.5732 66.5749 46.6017 68.4248 46.1348L70.3552 45.8851C74.0617 45.8103 76.3784 46.7891 78.0791 48.6881C78.5522 49.1676 78.9385 49.6848 79.6609 50.8055C77.6865 52.0638 77.6928 52.0518 74.8646 53.8827C74.2606 52.5815 73.2582 51.7649 72.1988 51.41C70.5541 50.9117 68.4803 51.4535 68.05 53.1913C67.9008 53.7268 67.9317 54.2251 68.1688 55.1097C68.8351 56.6292 71.0713 57.2898 73.0771 58.2116C78.8511 60.5534 80.8009 63.0644 81.2804 66.0532C81.7421 68.6264 81.1689 70.2956 81.0815 70.5448Z" fill="white"/>
</g>
<defs>
<filter id="filter0_d_92_4" x="0" y="0" width="108" height="108" filterUnits="userSpaceOnUse" color-interpolation-filters="sRGB">
<feFlood flood-opacity="0" result="BackgroundImageFix"/>
<feColorMatrix in="SourceAlpha" type="matrix" values="0 0 0 0 0 0 0 0 0 0 0 0 0 0 0 0 0 0 127 0" result="hardAlpha"/>
<feOffset dy="4"/>
<feGaussianBlur stdDeviation="2"/>
<feComposite in2="hardAlpha" operator="out"/>
<feColorMatrix type="matrix" values="0 0 0 0 0.616013 0 0 0 0 0.180065 0 0 0 0 0.682353 0 0 0 0.2 0"/>
<feBlend mode="normal" in2="BackgroundImageFix" result="effect1_dropShadow_92_4"/>
<feBlend mode="normal" in="SourceGraphic" in2="effect1_dropShadow_92_4" result="shape"/>
</filter>
</defs>
</svg>
