<svg width="160" height="160" viewBox="0 0 160 160" fill="none" xmlns="http://www.w3.org/2000/svg">
<circle cx="80" cy="80" r="80" fill="#220E2A"/>
<g clip-path="url(#clip0_102_12)">
<path d="M136 81.4002C136 93.9106 132.438 105.161 125.315 115.151C118.198 125.142 108.997 132.052 97.7184 135.888C96.408 136.14 95.4448 135.967 94.84 135.367C94.5416 135.077 94.3065 134.728 94.1494 134.343C93.9923 133.957 93.9167 133.544 93.9272 133.127V117.352C93.9272 112.519 92.6616 108.98 90.136 106.74C92.6591 106.487 95.1587 106.038 97.612 105.396C99.8184 104.797 102.103 103.828 104.461 102.484C106.727 101.216 108.732 99.5283 110.369 97.5114C111.948 95.5402 113.236 92.925 114.233 89.6602C115.23 86.3954 115.728 82.649 115.728 78.4154C115.728 72.3842 113.807 67.249 109.971 63.0154C111.763 58.4794 111.573 53.4002 109.383 47.7666C108.022 47.3186 106.057 47.5986 103.481 48.5898C101.144 49.4675 98.8975 50.5683 96.772 51.877L94 53.669C89.447 52.3709 84.7344 51.7187 80 51.7314C75.2654 51.7205 70.5527 52.3746 66 53.6746C64.9872 52.9731 63.9545 52.3009 62.9032 51.6586C61.6152 50.8578 59.5824 49.9002 56.8104 48.7802C54.044 47.6602 51.9496 47.3242 50.5384 47.7722C48.4048 53.4002 48.2312 58.4794 50.0344 63.0154C46.1928 67.249 44.2664 72.3842 44.2664 78.4154C44.2664 82.649 44.7704 86.3842 45.7672 89.6266C46.764 92.8634 48.0408 95.4786 49.592 97.4722C51.2005 99.5102 53.1947 101.211 55.4608 102.479C57.8184 103.823 60.1088 104.797 62.3152 105.391C64.5272 105.995 67.0192 106.443 69.7912 106.74C67.848 108.532 66.6552 111.103 66.2184 114.44C65.1743 114.946 64.0723 115.322 62.9368 115.56C61.5685 115.829 60.1759 115.954 58.7816 115.935C57.1744 115.935 55.5896 115.398 54.0048 114.328C52.4256 113.253 51.076 111.696 49.956 109.658C49.0811 108.116 47.874 106.789 46.4224 105.771C44.9888 104.775 43.7848 104.175 42.8104 103.979L41.3544 103.755C40.3352 103.755 39.6296 103.867 39.2376 104.091C38.8456 104.315 38.7336 104.595 38.8736 104.948C39.0383 105.328 39.2592 105.681 39.5288 105.995C39.8085 106.332 40.1282 106.632 40.4808 106.891L40.9848 107.261C42.06 107.765 43.1128 108.711 44.16 110.106C45.2072 111.5 45.9744 112.771 46.456 113.914L47.184 115.633C47.8168 117.526 48.8864 119.06 50.3984 120.231C51.9048 121.407 53.5344 122.151 55.2816 122.471C57.0288 122.795 58.72 122.975 60.3496 122.997C61.9736 123.019 63.3288 122.935 64.3984 122.734L66.0728 122.437C66.0728 124.33 66.084 126.547 66.112 129.09L66.1456 133.122C66.1456 134.018 65.832 134.768 65.1936 135.362C64.5664 135.967 63.592 136.14 62.2816 135.888C51.0032 132.052 41.8024 125.136 34.6848 115.151C27.5616 105.161 24 93.9106 24 81.4002C24 70.9842 26.5032 61.3858 31.5096 52.5882C36.3563 43.9594 43.3858 36.7561 51.8936 31.7002C60.3748 26.5947 70.101 23.9301 80 24.0002C89.9009 23.9291 99.6292 26.5937 108.112 31.7002C116.618 36.7569 123.645 43.9601 128.49 52.5882C133.497 61.3802 136 70.9898 136 81.4002Z" fill="white"/>
</g>
<defs>
<clipPath id="clip0_102_12">
<rect width="112" height="112" fill="white" transform="translate(24 24)"/>
</clipPath>
</defs>
</svg>
