<svg width="160" height="160" viewBox="0 0 160 160" fill="none" xmlns="http://www.w3.org/2000/svg">
<circle cx="80" cy="80" r="80" fill="#220E2A"/>
<g clip-path="url(#clip0_102_11)">
<path d="M114.348 114.363H99.6861V91.3948C99.6861 85.9152 99.5722 78.8664 92.0433 78.8664C84.4005 78.8664 83.2323 84.8262 83.2323 90.9889V114.363H68.5753V67.125H82.6531V73.56H82.8462C84.8113 69.8475 89.598 65.937 96.7458 65.937C111.601 65.937 114.348 75.7083 114.348 88.4347V114.363ZM52.0126 60.6603C47.2903 60.6603 43.4986 56.8438 43.4986 52.1463C43.4986 47.4487 47.2953 43.6323 52.0126 43.6323C54.2707 43.6323 56.4363 44.5293 58.033 46.126C59.6296 47.7227 60.5266 49.8882 60.5266 52.1463C60.5266 54.4044 59.6296 56.5699 58.033 58.1666C56.4363 59.7633 54.2707 60.6603 52.0126 60.6603ZM59.3585 114.368H44.6569V67.125H59.3585V114.363V114.368ZM121.679 30H37.3062C33.267 30 30 33.1928 30 37.128V121.872C30 125.807 33.267 129 37.3062 129H121.664C125.698 129 129 125.812 129 121.872V37.128C129 33.1977 125.698 30 121.664 30H121.679Z" fill="white"/>
</g>
<defs>
<clipPath id="clip0_102_11">
<rect width="99" height="99" fill="white" transform="translate(30 30)"/>
</clipPath>
</defs>
</svg>
