<svg width="160" height="160" viewBox="0 0 160 160" fill="none" xmlns="http://www.w3.org/2000/svg">
<circle cx="80" cy="80" r="80" fill="#220E2A"/>
<path d="M104.92 49.4799C103.812 49.4799 102.73 49.8084 101.809 50.4237C100.888 51.039 100.17 51.9136 99.7462 52.9369C99.3223 53.9602 99.2114 55.0861 99.4275 56.1724C99.6436 57.2587 100.177 58.2565 100.96 59.0397C101.743 59.8229 102.741 60.3562 103.827 60.5723C104.914 60.7884 106.04 60.6775 107.063 60.2536C108.086 59.8298 108.961 59.112 109.576 58.1911C110.191 57.2702 110.52 56.1875 110.52 55.0799C110.52 53.5947 109.93 52.1703 108.88 51.1201C107.83 50.0699 106.405 49.4799 104.92 49.4799ZM126.387 60.7732C126.296 56.9013 125.571 53.0705 124.24 49.4332C123.053 46.3212 121.207 43.5032 118.827 41.1733C116.516 38.7812 113.691 36.9461 110.567 35.8066C106.939 34.4353 103.104 33.6936 99.2266 33.6133C94.2799 33.3333 92.6932 33.3333 79.9999 33.3333C67.3066 33.3333 65.7199 33.3333 60.7732 33.6133C56.896 33.6936 53.0609 34.4353 49.4332 35.8066C46.3144 36.9576 43.4923 38.7912 41.1733 41.1733C38.7812 43.4841 36.9461 46.3086 35.8066 49.4332C34.4353 53.0609 33.6936 56.896 33.6133 60.7732C33.3333 65.7199 33.3333 67.3066 33.3333 79.9999C33.3333 92.6932 33.3333 94.2799 33.6133 99.2266C33.6936 103.104 34.4353 106.939 35.8066 110.567C36.9461 113.691 38.7812 116.516 41.1733 118.827C43.4923 121.209 46.3144 123.042 49.4332 124.193C53.0609 125.564 56.896 126.306 60.7732 126.387C65.7199 126.667 67.3066 126.667 79.9999 126.667C92.6932 126.667 94.2799 126.667 99.2266 126.387C103.104 126.306 106.939 125.564 110.567 124.193C113.691 123.054 116.516 121.219 118.827 118.827C121.217 116.505 123.065 113.685 124.24 110.567C125.571 106.929 126.296 103.099 126.387 99.2266C126.387 94.2799 126.667 92.6932 126.667 79.9999C126.667 67.3066 126.667 65.7199 126.387 60.7732ZM117.987 98.6666C117.953 101.629 117.416 104.564 116.4 107.347C115.655 109.377 114.458 111.213 112.9 112.713C111.386 114.256 109.555 115.45 107.533 116.213C104.751 117.229 101.816 117.766 98.8532 117.8C94.1866 118.033 92.4599 118.08 80.1866 118.08C67.9132 118.08 66.1866 118.08 61.5199 117.8C58.4441 117.858 55.3814 117.384 52.4666 116.4C50.5336 115.598 48.7862 114.406 47.3333 112.9C45.7843 111.401 44.6025 109.564 43.8799 107.533C42.7406 104.711 42.1087 101.709 42.0133 98.6666C42.0133 93.9999 41.7333 92.2732 41.7333 79.9999C41.7333 67.7266 41.7333 65.9999 42.0133 61.3332C42.0342 58.3048 42.587 55.3037 43.6466 52.4666C44.4681 50.4968 45.7292 48.741 47.3333 47.3333C48.751 45.7287 50.5033 44.4544 52.4666 43.5999C55.3112 42.5735 58.3092 42.037 61.3332 42.0133C65.9999 42.0133 67.7266 41.7333 79.9999 41.7333C92.2732 41.7333 93.9999 41.7333 98.6666 42.0133C101.629 42.0472 104.564 42.5837 107.347 43.5999C109.467 44.387 111.371 45.6665 112.9 47.3333C114.429 48.7667 115.624 50.5193 116.4 52.4666C117.437 55.3083 117.974 58.3082 117.987 61.3332C118.22 65.9999 118.267 67.7266 118.267 79.9999C118.267 92.2732 118.22 93.9999 117.987 98.6666ZM79.9999 56.0599C75.267 56.0691 70.6431 57.481 66.7123 60.1172C62.7815 62.7534 59.7203 66.4955 57.9155 70.8708C56.1107 75.246 55.6433 80.0581 56.5723 84.6989C57.5013 89.3397 59.785 93.6011 63.1349 96.9445C66.4849 100.288 70.7506 102.563 75.3933 103.483C80.0359 104.403 84.847 103.926 89.2188 102.113C93.5905 100.3 97.3267 97.2313 99.9552 93.2954C102.584 89.3595 103.987 84.7328 103.987 79.9999C103.993 76.8504 103.376 73.7307 102.172 70.8204C100.969 67.91 99.2012 65.2664 96.972 63.0415C94.7428 60.8166 92.0957 59.0544 89.183 57.8563C86.2703 56.6581 83.1494 56.0476 79.9999 56.0599ZM79.9999 95.5399C76.9264 95.5399 73.9219 94.6285 71.3664 92.9209C68.8108 91.2134 66.819 88.7864 65.6428 85.9468C64.4666 83.1072 64.1589 79.9827 64.7585 76.9682C65.3581 73.9537 66.8382 71.1848 69.0115 69.0115C71.1848 66.8382 73.9537 65.3581 76.9682 64.7585C79.9827 64.1589 83.1072 64.4666 85.9468 65.6428C88.7864 66.819 91.2134 68.8108 92.9209 71.3664C94.6285 73.9219 95.5399 76.9264 95.5399 79.9999C95.5399 82.0407 95.138 84.0614 94.357 85.9468C93.576 87.8322 92.4314 89.5453 90.9884 90.9884C89.5453 92.4314 87.8322 93.576 85.9468 94.357C84.0614 95.138 82.0407 95.5399 79.9999 95.5399Z" fill="white"/>
</svg>
